<?xml version="1.0" encoding="UTF-8"?><svg id="Layer_2" xmlns="http://www.w3.org/2000/svg" viewBox="0 0 164.08 62.45"><defs><style>.cls-1{font-size:19.8px;}.cls-2{font-family:BrushScriptMT, 'Brush Script MT';}.cls-2,.cls-3{fill:#2e3192;}.cls-3{font-family:AmericanTypewriter, 'American Typewriter';font-size:45px;}.cls-4{font-size:18px;}</style></defs><g id="Layer_1-2"><g id="lHxPbq"><g><path d="M95,7.76l-.36,.57c-4.87-2.9-9.98-3.5-15.28-1.44-4.39,1.7-7.54,4.79-9.37,9.13-1.99,4.75-1.85,9.51,.45,14.13,2.3,4.62,6.07,7.5,11.03,8.85,0,.02,0,.05,0,.07-.05,.19-.1,.38-.15,.57-4.8-1.04-10.35-4.99-12.48-11.49-2.44-7.44,.22-15.02,5.88-19.44,6.14-4.8,14.38-4.76,20.28-.94Z"/><path d="M84.36,7.85l.05,.66c-4.85,.55-8.59,2.86-11.06,7.06-1.94,3.28-2.4,6.83-1.45,10.52,1.92,7.39,9.31,11.91,16.84,10.2l.16,.65c-4.09,1.05-9.82,.25-14.03-4.11-4.38-4.55-5.33-11.25-2.63-16.76,2.68-5.46,7.93-7.99,12.12-8.23Z"/><path d="M78.62,12.71l.42,.6c-2.48,1.81-4.06,4.19-4.62,7.2-.51,2.74-.08,5.35,1.35,7.76,1.72,2.89,4.24,4.72,7.54,5.39,3.29,.66,6.31-.07,9.04-2.04l.43,.56c-3.61,2.53-7.51,3.2-11.6,1.57-4.45-1.77-7.07-5.16-7.58-9.94-.49-4.6,1.36-8.26,5.01-11.09Z"/><path d="M85.51,38.26v.37c-4.99,.08-10.7-2.49-13.9-8.02-3.32-5.72-2.69-12.77,1.11-17.74,4.18-5.46,10.53-7.04,15.52-6.11l-.05,.34c-5.13-.73-9.65,.56-13.43,4.11-2.96,2.77-4.57,6.24-4.86,10.29-.21,2.91,.37,5.68,1.71,8.27,1.35,2.6,3.28,4.66,5.77,6.19,2.49,1.53,5.21,2.27,8.14,2.3Z"/><path d="M81.01,10.16l.13,.34c-.24,.1-.47,.19-.7,.29-1.24,.54-2.36,1.25-3.38,2.15-1.12,.99-2.04,2.13-2.76,3.44-.81,1.47-1.31,3.03-1.51,4.7-.22,1.86-.04,3.68,.53,5.45,.54,1.69,1.41,3.19,2.58,4.52,1.2,1.36,2.62,2.42,4.25,3.18,1.21,.56,2.48,.92,3.8,1.08,1.47,.18,2.92,.11,4.37-.21,.86-.19,1.69-.47,2.5-.84,.33-.15,.33-.14,.48,.23-4.25,1.86-8.44,1.81-12.47-.55-4.9-2.87-6.95-8-6.46-12.75,.58-5.65,4.54-9.63,8.64-11.05Z"/><path d="M93.46,28.84l.31,.25c-2.44,2.88-5.52,4.31-9.27,3.9-4.34-.47-7.37-2.86-8.85-6.96-1.32-3.66-.57-7.07,1.79-10.17l.31,.26c-1.9,2.39-2.66,5.08-2.18,8.08,.39,2.47,1.58,4.52,3.5,6.12,2.18,1.81,4.7,2.58,7.51,2.29,2.8-.28,5.09-1.58,6.89-3.78Z"/></g></g><text class="cls-3" transform="translate(36.38 37.6)"><tspan x="0" y="0" xml:space="preserve">S   S</tspan></text><text class="cls-2" transform="translate(0 55.76)"><tspan class="cls-1" x="0" y="0">S</tspan><tspan class="cls-4" x="12.79" y="0">mart </tspan><tspan class="cls-1" x="44.84" y="0">C</tspan><tspan class="cls-4" x="56.79" y="0">orporate </tspan><tspan class="cls-1" x="107.99" y="0">S</tspan><tspan class="cls-4" x="120.78" y="0">olutions</tspan></text></g></svg>